<svg xmlns="http://www.w3.org/2000/svg" xmlns:xlink="http://www.w3.org/1999/xlink" width="742.848" height="654.045" viewBox="0 0 742.848 654.045">
  <defs>
    <radialGradient id="radial-gradient" cx="1" cy="0.734" r="0.488" gradientTransform="translate(0 -0.1) scale(1 1.208)" gradientUnits="objectBoundingBox">
      <stop offset="0" stop-color="#1a1a1a"/>
      <stop offset="1"/>
    </radialGradient>
    <filter id="Path_4" x="0" y="0" width="700.125" height="637.045" filterUnits="userSpaceOnUse">
      <feOffset dx="4" dy="6" input="SourceAlpha"/>
      <feGaussianBlur stdDeviation="20" result="blur"/>
      <feFlood flood-opacity="0.059"/>
      <feComposite operator="in" in2="blur"/>
      <feComposite in="SourceGraphic"/>
    </filter>
    <filter id="Path_5" x="280.277" y="106.045" width="462.57" height="429.789" filterUnits="userSpaceOnUse">
      <feOffset dx="4" dy="6" input="SourceAlpha"/>
      <feGaussianBlur stdDeviation="20" result="blur-2"/>
      <feFlood flood-opacity="0.059"/>
      <feComposite operator="in" in2="blur-2"/>
      <feComposite in="SourceGraphic"/>
    </filter>
    <radialGradient id="radial-gradient-2" cx="0.621" cy="0.129" r="0.5" gradientTransform="translate(0 -0.103) scale(1 1.207)" gradientUnits="objectBoundingBox">
      <stop offset="0" stop-color="silver"/>
      <stop offset="1" stop-color="#fff"/>
    </radialGradient>
    <filter id="Path_6" x="68.142" y="286.767" width="319.842" height="300.279" filterUnits="userSpaceOnUse">
      <feOffset dx="4" dy="6" input="SourceAlpha"/>
      <feGaussianBlur stdDeviation="20" result="blur-3"/>
      <feFlood flood-opacity="0.059"/>
      <feComposite operator="in" in2="blur-3"/>
      <feComposite in="SourceGraphic"/>
    </filter>
  </defs>
  <g id="Group_15" data-name="Group 15" transform="translate(-8774.938 5600.045)">
    <g transform="matrix(1, 0, 0, 1, 8774.94, -5600.05)" filter="url(#Path_4)">
      <g id="Path_4-2" data-name="Path 4" transform="translate(15.06 -1.95)" fill="url(#radial-gradient)">
        <path d="M 564.9790649414063 568 L 97.02097320556641 568 C 92.22113800048828 568 87.51113891601563 567.3629150390625 83.02188873291016 566.1064453125 C 78.72855377197266 564.90478515625 74.61588287353516 563.132080078125 70.7982177734375 560.837646484375 C 63.42563629150391 556.40673828125 57.21955108642578 550.0639038085938 52.8507194519043 542.4948120117188 C 48.48188781738281 534.92578125 46.09388732910156 526.379150390625 45.94488525390625 517.7788696289063 C 45.86771774291992 513.325439453125 46.38988494873047 508.8775024414063 47.49697113037109 504.558837890625 C 48.65446853637695 500.0430908203125 50.45880126953125 495.64599609375 52.85963439941406 491.48974609375 L 286.8387145996094 86.44442749023438 C 289.2386474609375 82.28984069824219 292.1449584960938 78.53142547607422 295.4769592285156 75.27342224121094 C 298.6636352539063 72.15767669677734 302.2542114257813 69.48350524902344 306.1488952636719 67.32542419433594 C 313.6702270507813 63.15767669677734 322.2636413574219 60.95475769042969 331.0000610351563 60.95475769042969 C 339.7363891601563 60.95475769042969 348.3298034667969 63.15767669677734 355.8510437011719 67.32534027099609 C 359.7457885742188 69.48350524902344 363.3363952636719 72.1575927734375 366.5229797363281 75.27342224121094 C 369.8550415039063 78.53142547607422 372.7613830566406 82.28984069824219 375.1613159179688 86.44442749023438 L 609.1403198242188 491.4896850585938 C 611.5411987304688 495.6459350585938 613.3455810546875 500.0429992675781 614.5030517578125 504.558837890625 C 615.6100463867188 508.8775024414063 616.1322021484375 513.3253173828125 616.0550537109375 517.7788696289063 C 615.9060668945313 526.379150390625 613.51806640625 534.9258422851563 609.1492309570313 542.4949340820313 C 604.7803955078125 550.0639038085938 598.5742797851563 556.40673828125 591.2017822265625 560.837646484375 C 587.384033203125 563.1322021484375 583.271484375 564.9048461914063 578.9781494140625 566.1064453125 C 574.4888916015625 567.3629150390625 569.7788696289063 568 564.9790649414063 568 Z" stroke="none"/>
        <path d="M 330.9999694824219 65.9547119140625 C 314.3746032714844 65.9547119140625 299.4841613769531 74.54931640625 291.1681518554688 88.9454345703125 L 57.18914794921875 493.9906921386719 C 48.86981201171875 508.392578125 48.86676025390625 525.590576171875 57.18115234375 539.9953002929688 C 65.49542236328125 554.400146484375 80.38885498046875 562.9999389648438 97.0208740234375 562.9999389648438 L 564.9789428710938 562.9999389648438 C 581.611083984375 562.9999389648438 596.50439453125 554.400146484375 604.8187866210938 539.9953002929688 C 613.1331787109375 525.590576171875 613.130126953125 508.392578125 604.810791015625 493.9906921386719 L 370.831787109375 88.9454345703125 C 362.5156860351563 74.54931640625 347.6253356933594 65.9547119140625 330.9999694824219 65.9547119140625 M 330.9999389648438 55.9547119140625 C 349.8560485839844 55.9547119140625 368.7121887207031 65.2843017578125 379.4908752441406 83.94342041015625 L 613.4698486328125 488.9886779785156 C 635.035888671875 526.322021484375 608.0936279296875 572.9999389648438 564.9789428710938 572.9999389648438 L 97.0208740234375 572.9999389648438 C 53.90631103515625 572.9999389648438 26.96405029296875 526.322021484375 48.53009033203125 488.9886779785156 L 282.5090637207031 83.94342041015625 C 293.2876892089844 65.2843017578125 312.143798828125 55.9547119140625 330.9999389648438 55.9547119140625 Z" stroke="none" fill="#fff"/>
      </g>
    </g>
    <g transform="matrix(1, 0, 0, 1, 8774.94, -5600.05)" filter="url(#Path_5)">
      <g id="Path_5-2" data-name="Path 5" transform="translate(713.06 517.05) rotate(180)" fill="none">
        <path d="M164.766,70.763c18.077-31.4,63.39-31.4,81.467,0L370.448,286.553C388.485,317.886,365.868,357,329.715,357H81.285c-36.154,0-58.77-39.114-40.734-70.447Z" stroke="none"/>
        <path d="M 205.4999542236328 57.21072387695313 C 192.1038513183594 57.21072387695313 180.1162414550781 64.14205932617188 173.4331817626953 75.75210571289063 L 49.21841430664063 291.5413818359375 C 42.55023193359375 303.1254577636719 42.56362915039063 316.9494934082031 49.25418090820313 328.5206604003906 C 55.94479370117188 340.0918273925781 67.9189453125 347 81.28518676757813 347 L 329.7147827148438 347 C 343.0810241699219 347 355.0552368164063 340.0918273925781 361.745849609375 328.5206604003906 C 368.4364013671875 316.9494934082031 368.4497985839844 303.1254577636719 361.7816162109375 291.5413818359375 L 237.5667877197266 75.75210571289063 C 230.8837432861328 64.14205932617188 218.8961334228516 57.21072387695313 205.4999542236328 57.21072387695313 M 205.4999847412109 47.21072387695313 C 221.3475494384766 47.21072387695313 237.1951293945313 55.06158447265625 246.2335205078125 70.76327514648438 L 370.4483642578125 286.5525512695313 C 388.4847412109375 317.8858337402344 365.8684692382813 357 329.7147827148438 357 L 81.28518676757813 357 C 45.13150024414063 357 22.51528930664063 317.8858337402344 40.55169677734375 286.5525512695313 L 164.7664642333984 70.76327514648438 C 173.8048553466797 55.06158447265625 189.6524200439453 47.21072387695313 205.4999847412109 47.21072387695313 Z" stroke="none" fill="#fff"/>
      </g>
    </g>
    <g transform="matrix(1, 0, 0, 1, 8774.94, -5600.05)" filter="url(#Path_6)">
      <path id="Path_6-2" data-name="Path 6" d="M96.06,44.651a30,30,0,0,1,51.88,0L217.816,164.93A30,30,0,0,1,191.876,210H52.124a30,30,0,0,1-25.94-45.07Z" transform="translate(102.06 311.05)" fill="url(#radial-gradient-2)"/>
    </g>
    <path id="Path_7" data-name="Path 7" d="M21.5,0A21.5,21.5,0,1,1,0,21.5,21.5,21.5,0,0,1,21.5,0Z" transform="translate(9100 -4989)" fill="#fff"/>
  </g>
</svg>
